<?xml version="1.0" encoding="utf-8"?>
<!-- Generator: Adobe Illustrator 18.0.0, SVG Export Plug-In . SVG Version: 6.00 Build 0)  -->
<!DOCTYPE svg PUBLIC "-//W3C//DTD SVG 1.1//EN" "http://www.w3.org/Graphics/SVG/1.1/DTD/svg11.dtd">
<svg version="1.1" id="Layer_1" xmlns="http://www.w3.org/2000/svg" xmlns:xlink="http://www.w3.org/1999/xlink" x="0px" y="0px"
	 viewBox="0 0 360 360" enable-background="new 0 0 360 360" xml:space="preserve">
<path fill="#FFFFFF" d="M180,0C80.6,0,0,80.6,0,180s80.6,180,180,180s180-80.6,180-180S279.4,0,180,0z M97.1,178.5
	c0-6.6,5.4-12,12-12h111c6.6,0,12,5.4,12,12v0c0,6.6-5.4,12-12,12h-111C102.5,190.5,97.1,185.1,97.1,178.5L97.1,178.5z M268.1,244.5
	c0,6.6-5.4,12-12,12h-147c-6.6,0-12-5.4-12-12v0c0-6.6,5.4-12,12-12h147C262.8,232.5,268.1,237.9,268.1,244.5L268.1,244.5z
	 M268.1,112.5c0,6.6-5.4,12-12,12h-147c-6.6,0-12-5.4-12-12v0c0-6.6,5.4-12,12-12h147C262.8,100.5,268.1,105.9,268.1,112.5
	L268.1,112.5z"/>
</svg>
